<svg width="36" height="36" viewBox="0 0 36 36" fill="none" xmlns="http://www.w3.org/2000/svg">
  <path d="M19.459 3.4165C18.6854 3.4165 17.9436 3.72379 17.3966 4.27078C16.8496 4.81776 16.5423 5.55962 16.5423 6.33317C16.5423 7.10672 16.8496 7.84859 17.3966 8.39557C17.9436 8.94255 18.6854 9.24984 19.459 9.24984C20.2325 9.24984 20.9744 8.94255 21.5214 8.39557C22.0684 7.84859 22.3757 7.10672 22.3757 6.33317C22.3757 5.55962 22.0684 4.81776 21.5214 4.27078C20.9744 3.72379 20.2325 3.4165 19.459 3.4165ZM18.7298 12.1665C16.7159 12.1665 15.084 13.7984 15.084 15.8123V20.9165C15.084 22.4195 16.2242 23.6421 17.6845 23.8018C17.7884 23.8238 17.8944 23.8343 18.0007 23.8332H24.3923L26.9045 28.8604C26.9901 29.0318 27.1087 29.1846 27.2534 29.3101C27.398 29.4356 27.566 29.5314 27.7478 29.592C27.9295 29.6526 28.1214 29.6768 28.3124 29.6632C28.5035 29.6497 28.69 29.5986 28.8614 29.5129C29.0327 29.4273 29.1855 29.3087 29.311 29.164C29.4365 29.0192 29.5322 28.8512 29.5928 28.6695C29.6534 28.4878 29.6775 28.2959 29.6639 28.1048C29.6503 27.9137 29.5992 27.7272 29.5135 27.5559L26.5969 21.7226C26.4757 21.4803 26.2895 21.2766 26.0591 21.1343C25.8287 20.9919 25.5632 20.9165 25.2923 20.9165H22.3757V15.8123C22.3757 13.7984 20.7438 12.1665 18.7298 12.1665ZM10.7375 16.5614C10.4096 16.5592 10.0905 16.6676 9.83171 16.8691C7.72757 18.4576 6.33398 20.9837 6.33398 23.8332C6.33398 28.648 10.2691 32.5832 15.084 32.5832C17.9335 32.5832 20.4595 31.1896 22.0481 29.0855C22.173 28.9335 22.2658 28.7579 22.3211 28.5691C22.3764 28.3804 22.3929 28.1824 22.3696 27.9871C22.3464 27.7918 22.2839 27.6032 22.1859 27.4327C22.0879 27.2622 21.9565 27.1132 21.7994 26.9948C21.6424 26.8764 21.463 26.791 21.2721 26.7437C21.0812 26.6964 20.8827 26.6882 20.6885 26.7196C20.4944 26.751 20.3086 26.8213 20.1423 26.9264C19.9761 27.0314 19.8328 27.169 19.721 27.3309C18.6496 28.7501 16.9887 29.6665 15.084 29.6665C11.8459 29.6665 9.25065 27.0712 9.25065 23.8332C9.25065 21.9285 10.1671 20.2676 11.5863 19.1961C11.8333 19.015 12.0171 18.7607 12.1115 18.4693C12.2059 18.1779 12.2061 17.8642 12.1122 17.5726C12.0183 17.2811 11.8349 17.0265 11.5882 16.845C11.3414 16.6635 11.0438 16.5643 10.7375 16.5614Z" fill="white"/>
</svg>
