<svg width="42" height="43" viewBox="0 0 42 43" fill="none" xmlns="http://www.w3.org/2000/svg">
  <path d="M15.75 18C17.913 18 19.0977 17.2002 21 16.25C22.61 15.445 24.913 14.5 26.25 14.5C27.587 14.5 29.89 15.445 31.5 16.25C32.7337 16.866 33.6665 17.419 34.7603 17.7323C35.7595 18.0175 36.75 17.2213 36.75 16.1818V15.8668C36.75 15.1213 36.2285 14.5122 35.5093 14.3162C34.7918 14.1202 34.034 13.7877 33.25 13.4097V7.5C33.25 5.56625 31.6838 4 29.75 4H12.25C10.3162 4 8.75 5.56625 8.75 7.5V11.7788C8.26875 11.5863 7.78225 11.4165 7.28525 11.2853C6.2615 11.0105 5.25 11.7665 5.25 12.8253V13.1332C5.25 13.8787 5.7715 14.4877 6.49075 14.6837C7.20825 14.8797 7.966 15.2123 8.75 15.5903V18.7787C8.26875 18.5862 7.78225 18.4165 7.28525 18.2853C6.2615 18.0105 5.25 18.7665 5.25 19.8253V20.1332C5.25 20.8787 5.7715 21.4877 6.49075 21.6837C7.20825 21.8797 7.966 22.2123 8.75 22.5903V25.7787C8.26875 25.5862 7.78225 25.4165 7.28525 25.2853C6.2615 25.0105 5.25 25.7665 5.25 26.8253V27.1332C5.25 27.8787 5.7715 28.4877 6.49075 28.6837C7.20825 28.8797 7.966 29.2122 8.75 29.5902V35.5C8.75 37.4338 10.3162 39 12.25 39H29.75C31.6838 39 33.25 37.4338 33.25 35.5V31.2265C33.7313 31.4173 34.2195 31.587 34.7183 31.7183C35.742 31.9895 36.75 31.2353 36.75 30.1765V29.8737C36.75 29.1545 36.274 28.5018 35.574 28.3355C34.2895 28.0293 32.7022 27.3502 31.5 26.75C29.5977 25.7998 28.413 25 26.25 25C24.087 25 22.9023 25.7998 21 26.75C19.39 27.555 17.087 28.5 15.75 28.5C14.9695 28.5 14.126 28.2393 13.237 27.8613C12.6438 27.6093 12.25 27.0265 12.25 26.3807C12.25 25.385 13.1582 24.608 14.1312 24.818C14.6597 24.9335 15.197 25 15.75 25C17.913 25 19.88 24.0148 21.7822 23.0663C23.3922 22.2613 24.913 21.5 26.25 21.5C27.587 21.5 29.1077 22.2613 30.7177 23.0663C32.0092 23.712 33.3305 24.3717 34.7235 24.7305C35.7455 24.993 36.75 24.2423 36.75 23.1853V22.8737C36.75 22.1545 36.274 21.5018 35.574 21.3355C34.2895 21.0293 32.7022 20.3502 31.5 19.75C29.5977 18.7998 28.413 18 26.25 18C24.087 18 22.9023 18.7998 21 19.75C19.39 20.555 17.087 21.5 15.75 21.5C14.9695 21.5 14.126 21.2393 13.237 20.8613C12.6438 20.6093 12.25 20.0265 12.25 19.3807C12.25 18.385 13.1582 17.608 14.1312 17.818C14.6597 17.9335 15.197 18 15.75 18Z" fill="white"/>
</svg>
