<svg width="48" height="48" viewBox="0 0 48 48" fill="none" xmlns="http://www.w3.org/2000/svg">
  <path d="M10 6C7.79 6 6 7.79 6 10V38C6 40.21 7.79 42 10 42H19.0352L19 42.0352L22.2305 45.2695C23.2065 46.2455 24.7935 46.2455 25.7695 45.2695L29 42.0352L28.9648 42H38C40.21 42 42 40.21 42 38V10C42 7.79 40.21 6 38 6H10ZM23 14H25C25.552 14 26 14.448 26 15V17C26 17.552 25.552 18 25 18H23C22.448 18 22 17.552 22 17V15C22 14.448 22.448 14 23 14ZM24 22C25.104 22 26 22.896 26 24V32C26 33.104 25.104 34 24 34C22.896 34 22 33.104 22 32V24C22 22.896 22.896 22 24 22Z" fill="#FFFF00"/>
</svg>
