<svg width="65" height="64" viewBox="0 0 65 64" fill="none" xmlns="http://www.w3.org/2000/svg">
  <path d="M6.49805 5.99854C5.43718 5.99854 4.41977 6.41996 3.66962 7.17011C2.91947 7.92025 2.49805 8.93767 2.49805 9.99854C2.49805 11.0594 2.91947 12.0768 3.66962 12.827C4.41977 13.5771 5.43718 13.9985 6.49805 13.9985C7.55891 13.9985 8.57633 13.5771 9.32647 12.827C10.0766 12.0768 10.498 11.0594 10.498 9.99854C10.498 8.93767 10.0766 7.92025 9.32647 7.17011C8.57633 6.41996 7.55891 5.99854 6.49805 5.99854ZM19.8314 7.33187C18.3594 7.33187 17.1647 8.52654 17.1647 9.99854C17.1647 11.4705 18.3594 12.6652 19.8314 12.6652H54.498C55.97 12.6652 57.1647 11.4705 57.1647 9.99854C57.1647 8.52654 55.97 7.33187 54.498 7.33187H19.8314ZM6.49805 21.9985C5.43718 21.9985 4.41977 22.42 3.66962 23.1701C2.91947 23.9203 2.49805 24.9377 2.49805 25.9985C2.49805 27.0594 2.91947 28.0768 3.66962 28.827C4.41977 29.5771 5.43718 29.9985 6.49805 29.9985C7.55891 29.9985 8.57633 29.5771 9.32647 28.827C10.0766 28.0768 10.498 27.0594 10.498 25.9985C10.498 24.9377 10.0766 23.9203 9.32647 23.1701C8.57633 22.42 7.55891 21.9985 6.49805 21.9985ZM19.8314 23.3319C18.3594 23.3319 17.1647 24.5265 17.1647 25.9985C17.1647 27.4705 18.3594 28.6652 19.8314 28.6652H33.446C36.8113 25.3692 41.4154 23.3319 46.498 23.3319H19.8314ZM46.5033 28.6652C39.2766 28.6652 33.1647 34.7771 33.1647 42.0037C33.1647 49.4677 39.0314 55.3319 46.498 55.3319C49.1647 55.3319 51.8335 54.5298 53.9668 53.1965L57.9928 57.2277C59.0248 58.2597 60.6952 58.2597 61.7272 57.2277C62.7592 56.1957 62.7592 54.5253 61.7272 53.4933L57.696 49.4673C59.0293 47.334 59.8314 44.6652 59.8314 41.9985C59.8314 34.5319 53.9673 28.6652 46.5033 28.6652ZM46.498 33.9985C51.0314 33.9985 54.498 37.4652 54.498 41.9985C54.498 46.5319 51.0314 49.9985 46.498 49.9985C41.9647 49.9985 38.498 46.5319 38.498 41.9985C38.498 37.4652 41.9647 33.9985 46.498 33.9985ZM6.49805 37.9985C5.43718 37.9985 4.41977 38.42 3.66962 39.1701C2.91947 39.9203 2.49805 40.9377 2.49805 41.9985C2.49805 43.0594 2.91947 44.0768 3.66962 44.827C4.41977 45.5771 5.43718 45.9985 6.49805 45.9985C7.55891 45.9985 8.57633 45.5771 9.32647 44.827C10.0766 44.0768 10.498 43.0594 10.498 41.9985C10.498 40.9377 10.0766 39.9203 9.32647 39.1701C8.57633 38.42 7.55891 37.9985 6.49805 37.9985ZM19.8314 39.3319C18.3594 39.3319 17.1647 40.5265 17.1647 41.9985C17.1647 43.4705 18.3594 44.6652 19.8314 44.6652H28.0449C27.9196 43.7932 27.8314 42.9052 27.8314 41.9985C27.8314 41.0919 27.9196 40.2039 28.0449 39.3319H19.8314Z" fill="white"/>
</svg>
