<svg width="42" height="43" viewBox="0 0 42 43" fill="none" xmlns="http://www.w3.org/2000/svg">
  <path d="M19.2509 4.00049C17.3172 4.00049 15.7509 5.56674 15.7509 7.50049V23.2881C12.2684 25.9131 10.981 30.9379 13.7582 35.1484C14.9535 36.9614 16.8429 38.2851 18.9604 38.7681C24.6671 40.0648 29.7509 35.7402 29.7509 30.2505C29.7509 27.5152 28.4314 24.9313 26.2509 23.2881V21.5005H28.0009C28.9669 21.5005 29.7509 20.7165 29.7509 19.7505C29.7509 18.7845 28.9669 18.0005 28.0009 18.0005H26.2509V14.5005H28.0009C28.9669 14.5005 29.7509 13.7165 29.7509 12.7505C29.7509 11.7845 28.9669 11.0005 28.0009 11.0005H26.2509V7.50049C26.2509 5.56674 24.6847 4.00049 22.7509 4.00049H19.2509ZM19.2509 7.50049H22.7509V11.0005H19.2509V7.50049Z" fill="white"/>
</svg>
