<svg width="51" height="50" viewBox="0 0 51 50" fill="none" xmlns="http://www.w3.org/2000/svg">
  <path d="M10.4858 8.31292C10.0713 8.31303 9.66631 8.43673 9.32254 8.66822C8.97877 8.89971 8.71185 9.22846 8.55589 9.61244C8.39994 9.99642 8.36205 10.4182 8.44706 10.8238C8.53206 11.2295 8.73611 11.6005 9.03311 11.8896L22.1435 24.9999L9.03311 38.1103C8.83317 38.3023 8.67354 38.5322 8.56357 38.7866C8.4536 39.0411 8.39551 39.3149 8.39269 39.592C8.38987 39.8692 8.44238 40.1442 8.54715 40.4008C8.65192 40.6574 8.80684 40.8905 9.00283 41.0865C9.19883 41.2825 9.43197 41.4374 9.68859 41.5422C9.9452 41.647 10.2201 41.6995 10.4973 41.6967C10.7745 41.6939 11.0483 41.6358 11.3027 41.5258C11.5572 41.4158 11.7871 41.2562 11.9791 41.0562L25.0894 27.9459L38.1998 41.0562C38.3917 41.2562 38.6217 41.4158 38.8761 41.5258C39.1306 41.6358 39.4044 41.6939 39.6815 41.6967C39.9587 41.6995 40.2337 41.647 40.4903 41.5422C40.7469 41.4375 40.98 41.2825 41.176 41.0865C41.372 40.8905 41.5269 40.6574 41.6317 40.4008C41.7365 40.1442 41.789 39.8692 41.7862 39.592C41.7834 39.3149 41.7253 39.0411 41.6153 38.7866C41.5053 38.5322 41.3457 38.3023 41.1457 38.1103L28.0354 24.9999L41.1457 11.8896C41.4468 11.5969 41.6524 11.2202 41.7357 10.8087C41.8189 10.3972 41.7759 9.97015 41.6123 9.58351C41.4486 9.19687 41.172 8.86869 40.8187 8.64196C40.4653 8.41523 40.0517 8.30054 39.6321 8.31292C39.0908 8.32904 38.5771 8.55525 38.1998 8.94361L25.0894 22.054L11.9791 8.94361C11.7849 8.74404 11.5528 8.58541 11.2963 8.47708C11.0398 8.36875 10.7642 8.31293 10.4858 8.31292Z" fill="white"/>
</svg>
