<svg width="141" height="51" viewBox="0 0 141 51" fill="none" xmlns="http://www.w3.org/2000/svg">
  <path d="M6.99129 5.78817C7.57311 5.78817 8.155 6.01413 8.59819 6.45845C9.48455 7.34709 9.48455 8.78587 8.59819 9.67223C7.71182 10.5586 6.27304 10.5586 5.38441 9.67223C4.49804 8.78359 4.49804 7.34482 5.38441 6.45845C5.82759 6.01413 6.40948 5.78817 6.99129 5.78817Z" fill="#FFFF00"/>
  <path d="M21.2447 30.2599C20.2677 30.5336 19.2409 30.6861 18.1818 30.6861C11.9329 30.6861 6.81818 25.5713 6.81818 19.3224C6.81818 13.0735 11.9329 7.95881 18.1818 7.95881C19.6101 7.95881 20.9786 8.24164 22.2434 8.72674L19.6511 12.6774C19.1779 12.5736 18.6906 12.5043 18.1818 12.5043C14.3898 12.5043 11.3636 15.5304 11.3636 19.3224C11.3636 23.1145 14.3898 26.1406 18.1818 26.1406C18.6402 26.1406 19.0793 26.0788 19.5091 25.9941L21.2447 30.2599Z" fill="#FFFF00"/>
  <path d="M18.1818 1.14062C19.4364 1.14062 20.4545 2.15881 20.4545 3.41335C20.4545 4.6679 19.4364 5.68608 18.1818 5.68608C16.9273 5.68608 15.9091 4.6679 15.9091 3.41335C15.9091 2.15881 16.9273 1.14062 18.1818 1.14062Z" fill="#FFFF00"/>
  <path d="M2.27272 17.0497C3.52727 17.0497 4.54545 18.0679 4.54545 19.3224C4.54545 20.577 3.52727 21.5952 2.27272 21.5952C1.01818 21.5952 -3.8147e-06 20.577 -3.8147e-06 19.3224C-3.8147e-06 18.0679 1.01818 17.0497 2.27272 17.0497Z" fill="#FFFF00"/>
  <path d="M6.94691 28.2802C7.52873 28.2802 8.11061 28.4984 8.55379 28.9416C9.44016 29.8279 9.44016 31.269 8.55379 32.1554C7.66516 33.044 6.22638 33.044 5.34002 32.1554C4.45365 31.269 4.45365 29.8279 5.34002 28.9416C5.7832 28.4984 6.36509 28.2802 6.94691 28.2802Z" fill="#FFFF00"/>
  <path d="M18.1818 32.9588C19.4364 32.9588 20.4545 33.977 20.4545 35.2315C20.4545 36.4861 19.4364 37.5043 18.1818 37.5043C16.9273 37.5043 15.9091 36.4861 15.9091 35.2315C15.9091 33.977 16.9273 32.9588 18.1818 32.9588Z" fill="#FFFF00"/>
  <path fill-rule="evenodd" clip-rule="evenodd" d="M34.0909 3.41335C42.8773 3.41335 50 10.5361 50 19.3224C50 28.3156 40.0366 42.8614 35.8798 48.0023C34.9571 49.1432 33.2248 49.1432 32.302 48.0023C29.6117 44.675 24.5243 37.4118 21.2447 30.2599L19.5091 25.9941C18.6953 23.6063 18.1818 21.3247 18.1818 19.3224C18.1818 16.947 18.7178 14.7017 19.6511 12.6774L22.2434 8.72674C25.1565 5.47197 29.3791 3.41335 34.0909 3.41335ZM28.4091 19.3224C28.4091 16.1838 30.9523 13.6406 34.0909 13.6406C37.2295 13.6406 39.7727 16.1838 39.7727 19.3224C39.7727 22.4611 37.2295 25.0043 34.0909 25.0043C30.9523 25.0043 28.4091 22.4611 28.4091 19.3224Z" fill="#00FFFF"/>
  <path d="M139.921 36.2331H134.346V19.5101H125.985V16.723H134.346V0H139.921V36.2331ZM106.475 30.6588H103.688V2.78716H109.262V16.723H117.623V2.78716H123.198V30.6588H120.41V33.4459H106.475V30.6588ZM117.623 19.5101H109.262V30.6588H117.623V19.5101Z" fill="#00FFFF"/>
  <path d="M73.0296 36.2331H67.4552V22.2973H59.0938V19.5101H84.1782V0H89.7525V36.2331H84.1782V27.8716H78.6039V25.0845H84.1782V22.2973H73.0296V36.2331ZM98.114 36.2331H92.5397V0H98.114V36.2331ZM59.0938 5.57432H64.6681V2.78716H75.8167V5.57432H81.391V13.9358H75.8167V16.723H64.6681V13.9358H59.0938V5.57432ZM67.4552 8.36149H64.6681V11.1486H67.4552V13.9358H73.0296V11.1486H75.8167V8.36149H73.0296V5.57432H67.4552V8.36149Z" fill="#FFFF00"/>
  <path d="M90.794 37.4155H96.1994V39.2173H90.794V37.4155ZM90.794 42.8209H96.1994V39.2173H98.0012V50.0281H90.794V48.2263H96.1994V44.6227H90.794V42.8209ZM88.9922 44.6227H90.794V48.2263H88.9922V44.6227Z" fill="#FFFF00"/>
  <path d="M81.2072 37.4155V39.2173H75.8018V37.4155H81.2072ZM81.2072 39.2173H83.009V44.6227H75.8018V48.2263H74V39.2173H75.8018V42.8209H81.2072V39.2173ZM81.2072 50.0281H75.8018V48.2263H81.2072V50.0281Z" fill="#FFFF00"/>
  <path d="M59.0098 37.4155H60.8116V46.4245H59.0098V37.4155ZM66.217 37.4155H68.0188V46.4245H66.217V37.4155ZM62.6134 39.2173H64.4152V46.4245H62.6134V39.2173ZM60.8116 50.0281V46.4245H62.6134V50.0281H60.8116ZM64.4152 50.0281V46.4245H66.217V50.0281H64.4152Z" fill="#FFFF00"/>
  <path d="M132.884 50.0281H131.082V37.4155H132.884V39.2173H134.686V41.0191H132.884V50.0281ZM140.091 37.4155V39.2173H134.686V37.4155H140.091Z" fill="#00FFFF"/>
  <path d="M117.531 37.4155H119.333V48.2263H117.531V37.4155ZM126.54 50.0281H119.333V48.2263H124.738V37.4155H126.54V50.0281Z" fill="#00FFFF"/>
  <path d="M105.784 48.2264H111.19V50.0282H103.982V33.812H105.784V37.4156H111.19V39.2174H105.784V48.2264ZM112.991 48.2264H111.19V39.2174H112.991V48.2264Z" fill="#00FFFF"/>
</svg>
