<svg width="51" height="50" viewBox="0 0 51 50" fill="none" xmlns="http://www.w3.org/2000/svg">
  <path d="M6.33957 10.4167C6.0635 10.4128 5.78941 10.4638 5.53323 10.5668C5.27704 10.6697 5.04388 10.8225 4.84727 11.0164C4.65067 11.2102 4.49455 11.4412 4.38799 11.6959C4.28144 11.9506 4.22656 12.224 4.22656 12.5C4.22656 12.7761 4.28144 13.0495 4.38799 13.3042C4.49455 13.5589 4.65067 13.7899 4.84727 13.9837C5.04388 14.1776 5.27704 14.3304 5.53323 14.4333C5.78941 14.5363 6.0635 14.5873 6.33957 14.5834H43.8396C44.1156 14.5873 44.3897 14.5363 44.6459 14.4333C44.9021 14.3304 45.1353 14.1776 45.3319 13.9837C45.5285 13.7899 45.6846 13.5589 45.7911 13.3042C45.8977 13.0495 45.9526 12.7761 45.9526 12.5C45.9526 12.224 45.8977 11.9506 45.7911 11.6959C45.6846 11.4412 45.5285 11.2102 45.3319 11.0164C45.1353 10.8225 44.9021 10.6697 44.6459 10.5668C44.3897 10.4638 44.1156 10.4128 43.8396 10.4167H6.33957ZM6.33957 22.9167C6.0635 22.9128 5.78941 22.9638 5.53323 23.0668C5.27704 23.1697 5.04388 23.3225 4.84727 23.5164C4.65067 23.7102 4.49455 23.9412 4.38799 24.1959C4.28144 24.4506 4.22656 24.724 4.22656 25C4.22656 25.2761 4.28144 25.5495 4.38799 25.8042C4.49455 26.0589 4.65067 26.2899 4.84727 26.4837C5.04388 26.6776 5.27704 26.8304 5.53323 26.9333C5.78941 27.0363 6.0635 27.0873 6.33957 27.0834H43.8396C44.1156 27.0873 44.3897 27.0363 44.6459 26.9333C44.9021 26.8304 45.1353 26.6776 45.3319 26.4837C45.5285 26.2899 45.6846 26.0589 45.7911 25.8042C45.8977 25.5495 45.9526 25.2761 45.9526 25C45.9526 24.724 45.8977 24.4506 45.7911 24.1959C45.6846 23.9412 45.5285 23.7102 45.3319 23.5164C45.1353 23.3225 44.9021 23.1697 44.6459 23.0668C44.3897 22.9638 44.1156 22.9128 43.8396 22.9167H6.33957ZM6.33957 35.4167C6.0635 35.4128 5.78941 35.4638 5.53323 35.5668C5.27704 35.6697 5.04388 35.8225 4.84727 36.0164C4.65067 36.2102 4.49455 36.4412 4.38799 36.6959C4.28144 36.9506 4.22656 37.224 4.22656 37.5C4.22656 37.7761 4.28144 38.0495 4.38799 38.3042C4.49455 38.5589 4.65067 38.7899 4.84727 38.9837C5.04388 39.1776 5.27704 39.3304 5.53323 39.4333C5.78941 39.5363 6.0635 39.5873 6.33957 39.5834H43.8396C44.1156 39.5873 44.3897 39.5363 44.6459 39.4333C44.9021 39.3304 45.1353 39.1776 45.3319 38.9837C45.5285 38.7899 45.6846 38.5589 45.7911 38.3042C45.8977 38.0495 45.9526 37.7761 45.9526 37.5C45.9526 37.224 45.8977 36.9506 45.7911 36.6959C45.6846 36.4412 45.5285 36.2102 45.3319 36.0164C45.1353 35.8225 44.9021 35.6697 44.6459 35.5668C44.3897 35.4638 44.1156 35.4128 43.8396 35.4167H6.33957Z" fill="white"/>
</svg>
