<?xml version="1.0" standalone="no"?>
<!DOCTYPE svg PUBLIC "-//W3C//DTD SVG 20010904//EN"
 "http://www.w3.org/TR/2001/REC-SVG-20010904/DTD/svg10.dtd">
<svg version="1.0" xmlns="http://www.w3.org/2000/svg"
 width="800.000000pt" height="800.000000pt" viewBox="0 0 800.000000 800.000000"
 preserveAspectRatio="xMidYMid meet">
<metadata>
Created by potrace 1.14, written by Peter Selinger 2001-2017
</metadata>
<g transform="translate(0.000000,800.000000) scale(0.100000,-0.100000)"
fill="#000000" stroke="none">
<path d="M5040 7818 c-243 -37 -378 -289 -276 -514 26 -57 115 -154 140 -154
9 0 16 -4 16 -10 0 -5 4 -10 9 -10 5 0 22 -5 38 -11 46 -19 158 -31 178 -20 6
3 20 7 32 8 80 12 197 105 240 194 33 66 45 161 30 229 -9 42 -35 109 -49 126
-34 43 -108 110 -134 123 -16 7 -37 17 -47 23 -10 5 -38 11 -63 13 -25 3 -49
6 -52 8 -4 2 -32 0 -62 -5z"/>
<path d="M2368 7455 c-2 -2 -32 -6 -68 -9 -36 -3 -80 -8 -98 -11 -94 -13 -120
-17 -157 -26 -22 -5 -55 -12 -74 -15 -18 -2 -42 -9 -52 -15 -10 -5 -19 -8 -19
-5 0 2 -37 -7 -82 -21 -46 -14 -87 -26 -93 -27 -5 -1 -15 -5 -21 -8 -6 -4 -33
-15 -60 -24 -169 -57 -479 -227 -628 -345 -176 -139 -314 -271 -431 -413 -22
-27 -46 -54 -53 -62 -6 -7 -12 -17 -12 -23 0 -6 -4 -11 -9 -11 -6 0 -16 -10
-23 -23 -7 -13 -38 -61 -69 -108 -109 -162 -202 -346 -267 -529 -41 -114 -68
-206 -73 -247 -1 -5 -5 -17 -9 -29 -5 -11 -11 -36 -14 -55 -3 -19 -8 -45 -11
-59 -12 -58 -20 -113 -33 -225 -9 -78 -8 -425 1 -494 21 -153 34 -232 42 -261
2 -8 7 -31 10 -50 3 -19 8 -43 11 -52 3 -9 7 -26 9 -37 15 -81 145 -501 174
-566 5 -11 14 -33 20 -50 33 -94 159 -393 197 -467 13 -27 24 -54 24 -62 0 -7
7 -19 15 -26 9 -7 13 -15 11 -18 -5 -5 242 -495 293 -580 17 -29 31 -55 31
-58 0 -3 26 -51 59 -107 32 -56 69 -120 81 -142 13 -22 30 -52 39 -67 9 -15
38 -64 65 -110 27 -46 67 -112 90 -147 22 -36 41 -67 40 -70 0 -3 4 -10 9 -16
12 -14 97 -146 97 -151 0 -2 7 -12 15 -21 8 -10 15 -22 14 -27 0 -5 3 -12 8
-15 6 -3 34 -44 64 -91 29 -47 57 -86 61 -88 5 -2 8 -7 8 -12 0 -9 60 -98 224
-334 61 -87 116 -165 121 -175 6 -9 12 -18 16 -21 3 -3 34 -45 69 -95 36 -49
67 -92 70 -95 3 -3 30 -39 60 -80 30 -41 62 -82 70 -91 8 -9 24 -29 35 -44 11
-16 25 -33 30 -39 6 -6 23 -28 38 -49 89 -118 185 -168 319 -163 86 3 109 9
163 36 49 25 98 69 144 130 19 25 41 52 49 60 13 14 223 294 267 356 11 15 35
47 53 71 17 24 32 47 32 52 0 5 4 11 8 13 8 3 144 197 247 353 33 50 63 91 68
93 4 2 7 7 7 12 0 8 120 195 139 217 6 7 11 15 11 18 0 3 24 43 54 88 30 45
63 98 74 117 21 39 116 196 132 220 6 8 16 26 22 40 7 14 18 31 25 38 7 7 13
20 13 28 0 8 5 14 10 14 6 0 10 4 10 9 0 4 23 47 50 95 28 48 50 91 50 96 0 6
4 10 8 10 4 0 13 12 19 27 14 32 87 167 109 200 8 13 11 23 7 23 -5 0 -3 4 3
8 6 4 27 41 48 82 20 41 42 82 47 90 5 8 48 97 97 197 74 153 90 180 103 172
9 -5 34 -12 55 -15 22 -3 41 -7 44 -9 3 -2 24 -6 46 -9 22 -4 51 -8 64 -11
119 -23 408 -23 525 0 17 4 44 8 60 10 17 1 50 8 75 15 25 7 52 13 61 15 81
16 287 97 394 156 82 44 169 101 173 111 2 4 9 8 15 8 7 0 24 10 38 23 15 12
43 35 62 50 70 55 161 143 221 213 79 93 91 107 113 141 10 15 23 34 30 41 7
7 13 17 13 22 0 5 6 15 14 22 13 14 41 63 95 167 23 46 100 232 107 261 2 8
13 49 24 90 21 76 24 88 35 170 4 25 9 56 12 70 9 45 11 333 2 405 -14 110
-23 163 -45 250 -16 62 -59 195 -74 230 -62 141 -141 288 -189 351 -9 12 -23
32 -31 44 -64 97 -242 280 -365 376 -135 104 -392 243 -500 271 -5 1 -37 11
-70 23 -32 11 -70 23 -82 25 -13 3 -33 7 -45 10 -13 3 -32 7 -43 9 -11 2 -31
7 -45 10 -59 14 -136 19 -310 20 -179 1 -267 -5 -340 -24 -19 -5 -46 -11 -60
-14 -70 -12 -213 -56 -226 -69 -16 -16 -34 -2 -145 106 -133 129 -152 146
-234 207 -33 25 -62 47 -65 50 -3 3 -34 24 -70 47 -36 24 -69 46 -75 51 -9 7
-58 34 -185 104 -85 46 -372 162 -405 163 -5 0 -23 6 -40 12 -25 10 -114 33
-190 49 -11 2 -44 9 -73 15 -29 6 -74 12 -100 14 -26 3 -58 7 -72 10 -25 7
-446 16 -452 10z m2852 -1459 c30 -3 66 -8 80 -11 24 -6 65 -15 85 -19 32 -7
132 -44 175 -65 140 -69 258 -160 365 -282 80 -91 175 -261 201 -359 2 -8 11
-40 19 -70 14 -50 19 -78 31 -165 13 -101 3 -248 -26 -370 -16 -67 -16 -67
-24 -90 -4 -11 -11 -29 -15 -40 -14 -39 -85 -180 -107 -212 -148 -220 -374
-384 -618 -450 -34 -8 -70 -17 -81 -19 -11 -1 -20 -3 -20 -4 0 -1 -25 -4 -55
-8 -77 -8 -194 -7 -265 1 -33 5 -66 8 -72 9 -16 2 -18 -11 18 104 61 194 116
408 133 514 3 19 8 46 11 60 7 34 16 97 22 150 9 70 8 459 0 515 -4 28 -10 70
-13 95 -4 25 -8 54 -11 65 -2 11 -5 29 -7 40 -2 11 -6 29 -9 40 -3 11 -8 37
-11 58 -4 21 -11 47 -16 57 -6 11 -9 23 -8 27 1 4 -7 35 -17 68 -10 33 -20 65
-21 70 -6 20 -35 100 -44 120 -27 59 -61 148 -57 152 6 5 40 11 101 17 27 3
50 7 52 8 4 5 143 1 204 -6z m-2565 -180 c33 -3 73 -9 88 -15 15 -6 27 -9 27
-7 0 7 110 -33 169 -61 91 -44 173 -103 256 -188 196 -200 286 -468 251 -745
-7 -58 -13 -95 -16 -95 -1 0 -4 -13 -6 -30 -9 -50 -74 -191 -122 -262 -61 -92
-76 -112 -83 -113 -3 0 -33 -26 -66 -58 -60 -58 -201 -152 -228 -152 -8 0 -15
-5 -15 -10 0 -6 -3 -9 -7 -8 -5 0 -15 -2 -23 -5 -154 -62 -335 -76 -531 -42
-82 15 -297 110 -307 137 -2 4 -10 8 -17 8 -25 0 -185 164 -235 240 -27 42
-50 81 -50 87 0 7 -6 18 -13 25 -23 24 -68 175 -83 273 -8 57 -7 242 2 257 3
5 8 27 10 48 3 22 11 55 20 75 8 19 14 36 13 37 -1 3 13 37 36 93 78 183 308
396 491 455 21 7 45 17 52 23 6 5 12 7 12 3 0 -3 12 -1 28 5 15 6 43 13 62 15
84 12 167 19 195 17 17 -1 57 -5 90 -7z"/>
<path d="M6817 7074 c-2 -3 -17 -7 -32 -10 -32 -6 -103 -40 -122 -59 -7 -8
-23 -22 -36 -32 -25 -20 -73 -93 -69 -105 1 -5 -2 -8 -7 -8 -5 0 -12 -17 -16
-37 -5 -21 -10 -45 -12 -53 -7 -27 -9 -55 -5 -64 3 -4 6 -28 8 -52 4 -58 47
-143 95 -192 43 -42 126 -92 162 -96 13 -1 27 -5 32 -8 17 -10 138 -2 180 12
76 25 143 78 188 146 155 236 -6 548 -289 560 -39 2 -74 1 -77 -2z"/>
<path d="M7525 5258 c-93 -30 -176 -102 -212 -183 -9 -22 -20 -42 -23 -45 -17
-17 -20 -148 -3 -210 19 -74 72 -152 135 -198 29 -20 55 -37 58 -38 5 -1 32
-10 67 -24 44 -18 174 -5 234 22 92 42 183 144 206 232 4 11 6 59 7 106 0 73
-4 93 -27 142 -28 59 -78 118 -134 156 -81 56 -207 72 -308 40z"/>
<path d="M6889 3485 c-3 -2 -26 -6 -53 -9 -130 -16 -248 -115 -291 -246 -20
-60 -23 -177 -5 -209 6 -12 8 -21 5 -21 -11 0 50 -102 80 -132 28 -29 93 -75
105 -75 3 0 16 -5 28 -12 46 -24 142 -33 207 -19 56 13 129 51 174 93 38 35
100 135 84 135 -4 0 -2 4 5 9 19 12 28 157 13 207 -31 98 -83 170 -161 219
-42 26 -139 59 -148 50 -3 -2 -12 0 -22 5 -10 5 -19 7 -21 5z"/>
<path d="M5068 2735 c-2 -2 -19 -7 -38 -10 -19 -4 -39 -8 -45 -9 -33 -6 -110
-54 -149 -91 -79 -79 -122 -208 -104 -313 24 -143 150 -275 284 -299 127 -22
236 11 328 100 43 42 84 103 91 137 28 120 24 182 -18 274 -51 111 -160 189
-282 202 -22 3 -45 6 -52 9 -6 2 -13 2 -15 0z"/>
</g>
</svg>
